<?xml version="1.0" standalone="no"?>
<!DOCTYPE svg PUBLIC "-//W3C//DTD SVG 20010904//EN"
 "http://www.w3.org/TR/2001/REC-SVG-20010904/DTD/svg10.dtd">
<svg version="1.0" xmlns="http://www.w3.org/2000/svg"
 width="512.000000pt" height="512.000000pt" viewBox="0 0 512.000000 512.000000"
 preserveAspectRatio="xMidYMid meet">
<metadata>
Created by potrace 1.11, written by Peter Selinger 2001-2013
</metadata>
<g transform="translate(0.000000,512.000000) scale(0.100000,-0.100000)"
fill="#000000" stroke="none">
<path d="M2484 5101 c-44 -27 -53 -39 -324 -476 -134 -214 -253 -406 -265
-425 -60 -92 -268 -427 -282 -453 -20 -39 -13 -119 14 -155 43 -57 67 -67 179
-70 57 -2 104 -6 104 -8 0 -2 -15 -26 -33 -52 -19 -26 -60 -85 -92 -132 -32
-47 -187 -269 -344 -495 -157 -225 -294 -426 -303 -445 -25 -48 -23 -110 5
-150 37 -56 70 -74 142 -78 36 -2 65 -6 65 -8 0 -2 -20 -36 -44 -76 -24 -40
-60 -102 -80 -138 -42 -75 -26 -49 -278 -475 -107 -181 -203 -345 -213 -364
-22 -44 -16 -117 13 -158 46 -65 22 -63 751 -63 l660 0 3 -388 c3 -432 1 -416
76 -467 35 -24 38 -24 312 -25 161 0 288 4 303 9 36 14 84 61 97 95 6 17 10
165 10 402 l0 374 660 0 c725 0 706 -2 750 60 31 44 38 116 15 161 -10 19 -52
93 -95 164 -42 72 -155 263 -250 425 -95 162 -194 332 -221 377 -27 45 -49 84
-49 87 0 3 25 6 55 6 63 0 97 14 140 60 27 28 30 38 30 94 0 59 -3 66 -57 147
-46 69 -350 506 -667 961 -34 48 -61 90 -61 93 0 3 43 5 96 5 80 0 103 4 134
21 69 39 98 127 66 202 -18 43 -802 1295 -829 1326 -47 51 -137 66 -193 32z"/>
</g>
</svg>
