<?xml version="1.0" standalone="no"?>
<!DOCTYPE svg PUBLIC "-//W3C//DTD SVG 20010904//EN"
 "http://www.w3.org/TR/2001/REC-SVG-20010904/DTD/svg10.dtd">
<svg version="1.0" xmlns="http://www.w3.org/2000/svg"
 width="700.000000pt" height="700.000000pt" viewBox="0 0 700.000000 700.000000"
 preserveAspectRatio="xMidYMid meet">
<metadata>
Created by potrace 1.11, written by Peter Selinger 2001-2013
</metadata>
<g transform="translate(0.000000,700.000000) scale(0.100000,-0.100000)"
fill="#000000" stroke="none">
<path d="M3436 6993 c-40 -10 -97 -57 -129 -107 -19 -28 -170 -269 -337 -536
-166 -267 -323 -519 -350 -560 -152 -237 -405 -649 -417 -678 -42 -100 4 -223
100 -274 36 -19 61 -23 178 -26 l136 -4 -125 -181 c-120 -175 -292 -423 -359
-517 -17 -25 -58 -83 -90 -130 -32 -47 -152 -220 -267 -384 -115 -165 -217
-318 -227 -340 -46 -102 1 -229 106 -284 16 -8 68 -18 113 -21 l84 -6 -51 -78
c-28 -43 -51 -81 -51 -86 0 -5 -7 -14 -15 -21 -8 -7 -15 -19 -15 -26 0 -8 -65
-123 -143 -257 -409 -690 -575 -975 -584 -1003 -26 -75 7 -180 70 -228 18 -14
55 -30 82 -36 35 -8 307 -10 922 -8 479 1 875 0 878 -4 3 -3 7 -237 8 -519 2
-475 4 -517 21 -551 24 -50 86 -104 133 -117 52 -15 735 -15 788 0 53 14 128
92 141 145 6 22 11 250 12 538 0 274 4 501 7 504 3 3 400 5 881 4 575 -1 892
2 922 9 112 25 181 140 151 253 -6 22 -105 200 -221 395 -116 196 -219 372
-230 391 -11 19 -35 60 -53 90 -18 30 -70 118 -115 195 -46 77 -92 155 -102
173 -11 17 -17 32 -14 32 3 0 -24 46 -60 103 l-65 102 84 7 c89 7 124 20 171
64 58 55 83 163 54 231 -10 23 -315 471 -397 582 -13 19 -39 55 -56 80 -17 25
-87 127 -155 225 -69 98 -202 290 -296 425 l-170 246 135 5 c103 4 145 9 172
23 105 52 154 191 102 290 -9 18 -240 390 -513 827 -273 437 -522 836 -553
886 -58 94 -97 132 -156 152 -34 12 -99 14 -135 5z"/>
</g>
</svg>
